<svg width="17" height="20" viewBox="0 0 17 20" fill="none" xmlns="http://www.w3.org/2000/svg">
    <path fill-rule="evenodd" clip-rule="evenodd" d="M8.97352 1.57895C10.9364 1.57895 12.5276 3.11061 12.5276 5C12.5276 6.8894 10.9364 8.42105 8.97352 8.42105C7.01065 8.42105 5.41943 6.8894 5.41943 5C5.41943 3.11061 7.01065 1.57895 8.97352 1.57895ZM14.168 5C14.168 2.23858 11.8423 0 8.97352 0C6.10471 0 3.77908 2.23858 3.77908 5C3.77908 7.76142 6.10471 10 8.97352 10C11.8423 10 14.168 7.76142 14.168 5Z" fill="white"/>
    <path fill-rule="evenodd" clip-rule="evenodd" d="M14.4189 14.418C10.5914 13.0872 6.40864 13.0872 2.58109 14.418C2.01982 14.6131 1.64516 15.1307 1.64516 15.7109V17.1155C1.64516 17.896 2.35528 18.4956 3.14899 18.3852L4.19577 18.2396C7.05076 17.8426 9.94923 17.8426 12.8042 18.2396L13.851 18.3852C14.6447 18.4956 15.3548 17.896 15.3548 17.1155V15.7109C15.3548 15.1307 14.9802 14.6131 14.4189 14.418ZM2.02776 12.9097C6.21313 11.4546 10.7869 11.4546 14.9722 12.9097C16.1883 13.3325 17 14.4538 17 15.7109V17.1155C17 18.8706 15.4032 20.2189 13.6183 19.9706L12.5716 19.8251C9.8709 19.4495 7.1291 19.4495 4.42843 19.8251L3.38165 19.9706C1.59684 20.2189 0 18.8706 0 17.1155V15.7109C0 14.4538 0.811731 13.3325 2.02776 12.9097Z" fill="white"/>
</svg>